<svg width="320" height="106" viewBox="0 0 320 106" fill="none" xmlns="http://www.w3.org/2000/svg">
<path d="M14.7571 50.9959C14.7899 48.6719 15.5136 46.8185 16.9661 45.7827C18.2774 44.856 18.8196 43.5993 19.3062 42.1533C22.06 34.0088 24.8095 25.8604 27.5548 17.7083C28.1146 16.0442 28.687 14.3801 29.1813 12.6902C29.5015 11.6028 29.8924 10.9888 31.0852 11.0462C33.7783 11.1782 36.4791 11.0863 39.3236 11.0863C37.2558 20.5803 35.2107 29.9652 33.1177 39.5797C37.6567 38.3947 41.984 37.2844 46.2885 36.108C46.5205 36.042 46.8358 35.3334 46.7677 35.0206C45.2093 27.7216 43.6029 20.4397 42.0117 13.1521C41.873 12.5209 41.7797 11.8725 41.641 11.0892C44.6671 11.0892 47.6553 11.0634 50.641 11.1322C50.931 11.1322 51.3446 11.6831 51.4782 12.0762C53.6847 18.4944 55.8559 24.927 58.0826 31.4916C60.2185 30.3038 61.9105 28.6397 63.0831 26.1435C63.4847 27.1596 63.6266 28.2838 63.4929 29.3874C63.3591 30.491 62.9549 31.5294 62.3266 32.3839C59.9966 35.4596 56.7612 36.6503 53.5536 37.6717C47.3628 39.6428 41.1014 41.3356 34.8526 43.0714C29.0829 44.6752 23.23 45.9405 17.8134 48.8642C16.8148 49.4007 15.9196 50.1754 14.7571 50.9959Z" fill="white"/>
<path d="M75.8202 84.0655C73.9643 83.6983 72.2671 83.331 70.5574 83.0269C67.8995 82.5564 65.2366 82.103 62.5686 81.6928C60.9623 81.446 59.3282 81.3829 57.7396 81.0415C57.2932 80.9439 56.7309 80.2209 56.6098 79.67C55.6012 75.3118 54.711 70.922 53.7603 66.5495C53.1173 63.5914 52.4389 60.6448 51.7883 57.7413L65.1181 52.3645C68.5905 62.6245 72.1663 73.2546 75.8202 84.0655Z" fill="white"/>
<path d="M7.48958 74.0494C7.48958 73.1714 7.3988 72.2762 7.50471 71.4126C8.07714 66.7905 10.735 63.8295 13.9906 61.5486C18.8751 58.1257 24.3976 56.6309 29.9152 55.159C34.4139 53.9597 38.9126 52.7489 43.3786 51.4062C48.601 49.8339 53.8512 48.3334 58.9653 46.3824C63.1311 44.7929 66.9591 42.3656 68.9361 37.0319C69.7304 39.1722 69.6346 41.0486 69.2816 42.8849C68.462 47.157 65.6705 49.4982 62.3897 50.7692C56.035 53.2367 49.5719 55.3599 43.1138 57.4658C35.4654 59.9591 27.7566 62.2142 20.1057 64.7046C16.5109 65.8836 13.1879 67.9474 10.3719 70.7499C9.41112 71.6967 8.66974 72.9275 7.83001 74.0293L7.48958 74.0494Z" fill="white"/>
<path d="M11.2468 61.5944C10.3818 59.9963 10.6895 57.8187 11.7511 56.1144C13.5869 53.1793 16.27 51.6041 19.117 50.6344C24.5614 48.7809 30.0915 47.2459 35.6065 45.6708C43.2019 43.5017 50.9662 42.0212 58.2842 38.7131C61.3834 37.3101 64.064 35.1985 65.6502 31.6752C65.7757 31.435 65.9155 31.2049 66.0688 30.9866C67.3069 33.52 66.3613 37.3589 64.6364 39.5251C62.2131 42.5692 59.0155 44.021 55.6869 45.0625C49.4835 46.9992 43.2322 48.7379 37.0061 50.5741C31.539 52.1894 26.0492 53.7101 20.6149 55.4889C17.1148 56.6452 13.8164 58.4241 11.2468 61.5944Z" fill="white"/>
<path d="M5.32837 84.0426C6.44801 78.0403 9.07815 73.4497 13.8518 70.4601C18.0933 67.8148 22.6777 66.4232 27.532 64.8165C27.1941 66.538 26.9344 67.9869 26.6242 69.4071C25.8929 72.7784 25.1112 76.1324 24.4026 79.5065C24.1504 80.6541 23.6763 81.0271 22.6172 81.1476C19.0717 81.5522 15.5363 82.1059 12.0084 82.6883C9.76658 83.0699 7.54495 83.5921 5.32837 84.0426Z" fill="white"/>
<path d="M149.737 10.7478V44.6294C149.737 64.237 140.495 71.7484 125.78 71.7484C111.066 71.7484 101.812 64.237 101.812 44.6294V10.7478H115.018V40.8737C115.018 53.7188 119.244 58.602 125.78 58.602C132.317 58.602 136.543 53.7245 136.543 40.8737V10.7478H149.737Z" fill="white"/>
<path d="M207.514 32.5331C207.514 49.2114 195.629 53.7934 183.48 53.7934H172.848V70.8475H159.645V10.7478H182.824C194.308 10.7478 207.514 14.6527 207.514 32.5331ZM194.177 32.6077C194.177 27.5753 191.337 24.27 184.14 24.27H172.848V40.2712H184.14C191.337 40.2712 194.172 37.0405 194.172 32.6077H194.177Z" fill="white"/>
<path d="M236.569 61.6059C242.51 61.6059 248.255 59.6549 253.273 57.6264V68.3685C249.972 70.3969 243.438 71.5991 236.501 71.5991C220.523 71.5991 212.204 64.1623 212.204 51.0131C212.204 37.7921 220.458 29.5291 233.2 29.5291C247.594 29.5291 254.725 39.0689 254.725 53.9425H225.726C226.795 58.2261 229.768 61.6059 236.569 61.6059ZM225.474 47.5472H241.915C241.254 42.5893 238.677 40.4117 233.198 40.4117C228.777 40.5723 226.137 42.8992 225.476 47.5587L225.474 47.5472Z" fill="white"/>
<path d="M309.265 10.7478V44.6294C309.265 64.237 300.02 71.7484 285.309 71.7484C270.597 71.7484 261.353 64.237 261.353 44.6294V10.7478H274.559V40.8737C274.559 53.7188 278.783 58.602 285.321 58.602C291.86 58.602 296.082 53.7245 296.082 40.8737V10.7478H309.265Z" fill="white"/>
<path d="M109.677 80.525V87.3622C109.677 89.9444 110.685 91.049 112.042 91.049C113.555 91.049 114.511 89.9157 114.511 87.3622V80.525H115.837V87.2589C115.837 90.808 114.196 92.2655 111.997 92.2655C109.916 92.2655 108.35 90.9113 108.35 87.3277V80.525H109.677Z" fill="white"/>
<path d="M118.112 92.0761V80.525H119.542L122.807 86.3608C123.487 87.5648 124.096 88.8185 124.63 90.1137L124.661 90.0964C124.54 88.5528 124.509 87.1498 124.509 85.3509V80.525H125.745V92.0761H124.419L121.196 86.2145C120.489 84.9739 119.848 83.6862 119.277 82.3584L119.231 82.3756C119.307 83.8331 119.335 85.2218 119.335 87.1412V92.0761H118.112Z" fill="white"/>
<path d="M129.334 80.525V92.0761H128.022V80.525H129.334Z" fill="white"/>
<path d="M133.852 92.0761L130.539 80.525H131.954L133.535 86.2144C133.971 87.7753 134.349 89.1783 134.619 90.5325H134.659C134.947 89.1955 135.368 87.7408 135.819 86.2288L137.537 80.5221H138.939L135.307 92.0732L133.852 92.0761Z" fill="white"/>
<path d="M145.283 86.6621H141.337V90.8252H145.735V92.0761H140.028V80.525H145.503V81.7702H141.337V85.4198H145.283V86.6621Z" fill="white"/>
<path d="M147.437 80.6799C148.269 80.5106 149.113 80.4299 149.958 80.4389C151.358 80.4389 152.263 80.7258 152.894 81.3829C153.157 81.6622 153.364 82.0024 153.502 82.3804C153.64 82.7585 153.705 83.1658 153.693 83.5749C153.7 84.2362 153.517 84.8821 153.172 85.4144C152.827 85.9467 152.339 86.3364 151.782 86.5243V86.576C152.563 86.883 153.043 87.7064 153.272 88.9057C153.602 90.5153 153.844 91.6314 154.054 92.0761H152.7C152.533 91.749 152.309 90.7563 152.021 89.316C151.721 87.7236 151.179 87.124 149.989 87.0724H148.753V92.0761H147.442L147.437 80.6799ZM148.748 85.9419H150.087C151.489 85.9419 152.377 85.0668 152.377 83.747C152.377 82.2551 151.429 81.6038 150.042 81.5866C149.607 81.5727 149.173 81.619 148.748 81.7243V85.9419Z" fill="white"/>
<path d="M155.36 90.2599C156.07 90.7452 156.882 91.0057 157.71 91.0145C159.049 91.0145 159.834 90.2083 159.834 89.0434C159.834 87.9618 159.291 87.3449 157.92 86.7481C156.263 86.0796 155.239 85.1041 155.239 83.4773C155.239 81.6755 156.55 80.3385 158.517 80.3385C159.296 80.3101 160.068 80.5076 160.762 80.9123L160.401 82.1288C159.808 81.7649 159.145 81.5755 158.472 81.5779C157.087 81.5779 156.56 82.5219 156.56 83.2994C156.56 84.3782 157.178 84.909 158.578 85.5259C160.295 86.2805 161.168 87.2244 161.168 88.9201C161.168 90.7018 160.01 92.2454 157.615 92.2454C156.636 92.2454 155.564 91.9183 155.022 91.508L155.36 90.2599Z" fill="white"/>
<path d="M164.277 80.525V92.0761H162.966V80.525H164.277Z" fill="white"/>
<path d="M166.567 80.68C167.489 80.5207 168.42 80.4401 169.353 80.439C171.237 80.439 172.576 80.9353 173.466 81.8735C174.356 82.8117 174.896 84.1516 174.896 86.0223C174.896 87.893 174.392 89.448 173.436 90.5096C172.48 91.5712 170.914 92.1737 168.947 92.1737C168.152 92.179 167.357 92.133 166.567 92.036V80.68ZM167.878 90.8941C168.316 90.9633 168.759 90.9921 169.202 90.9802C172.003 90.9802 173.524 89.1956 173.524 86.0768C173.539 83.354 172.185 81.6211 169.414 81.6211C168.898 81.6117 168.384 81.6636 167.878 81.776V90.8941Z" fill="white"/>
<path d="M178.033 88.4438L176.979 92.0761H175.625L179.074 80.525H180.655L184.12 92.0761H182.718L181.634 88.4438H178.033ZM181.364 87.279L180.355 83.9536C180.131 83.199 179.98 82.5191 179.828 81.8448H179.798C179.649 82.5305 179.483 83.2335 179.294 83.9364L178.3 87.279H181.364Z" fill="white"/>
<path d="M185.598 80.68C186.52 80.5206 187.452 80.44 188.384 80.439C190.266 80.439 191.607 80.9353 192.497 81.8735C193.387 82.8117 193.927 84.1516 193.927 86.0223C193.927 87.893 193.423 89.448 192.465 90.5096C191.506 91.5712 189.943 92.1737 187.978 92.1737C187.183 92.179 186.388 92.133 185.598 92.036V80.68ZM186.909 90.8941C187.348 90.9633 187.79 90.9921 188.233 90.9802C191.035 90.9802 192.555 89.1956 192.555 86.0768C192.57 83.354 191.216 81.6211 188.445 81.6211C187.93 81.6117 187.415 81.6636 186.909 81.776V90.8941Z" fill="white"/>
<path d="M198.829 80.6627C199.663 80.5081 200.506 80.4332 201.351 80.4389C202.647 80.4389 203.595 80.7832 204.198 81.4001C204.492 81.7047 204.724 82.0788 204.878 82.496C205.032 82.9133 205.103 83.3637 205.088 83.8159C205.108 84.2657 205.048 84.7155 204.914 85.1391C204.779 85.5626 204.572 85.9516 204.304 86.2833C203.611 87.124 202.483 87.5515 201.202 87.5515C200.849 87.5646 200.495 87.5299 200.148 87.4482V92.0761H198.837L198.829 80.6627ZM200.141 86.2317C200.496 86.3233 200.861 86.3638 201.225 86.3522C202.806 86.3522 203.769 85.4771 203.769 83.8847C203.769 82.3584 202.821 81.621 201.376 81.621C200.962 81.6076 200.547 81.648 200.141 81.7415V86.2317Z" fill="white"/>
<path d="M212.099 86.6621H208.152V90.8252H212.55V92.0761H206.843V80.525H212.328V81.7702H208.152V85.4198H212.099V86.6621Z" fill="white"/>
<path d="M214.252 80.6799C215.084 80.5106 215.929 80.4299 216.774 80.4389C218.173 80.4389 219.079 80.7258 219.709 81.3829C219.972 81.6622 220.18 82.0024 220.317 82.3804C220.455 82.7585 220.52 83.1658 220.509 83.5749C220.516 84.2362 220.333 84.8821 219.988 85.4144C219.643 85.9467 219.154 86.3364 218.597 86.5243V86.576C219.379 86.883 219.845 87.7064 220.087 88.9057C220.418 90.5153 220.66 91.6314 220.869 92.0761H219.515C219.349 91.749 219.122 90.7563 218.837 89.316C218.537 87.7236 217.994 87.124 216.804 87.0724H215.569V92.0761H214.257L214.252 80.6799ZM215.563 85.9419H216.903C218.305 85.9419 219.192 85.0668 219.192 83.747C219.192 82.2551 218.244 81.6038 216.857 81.5866C216.423 81.5725 215.988 81.6188 215.563 81.7243V85.9419Z" fill="white"/>
<path d="M223.676 80.525V87.3622C223.676 89.9444 224.684 91.049 226.041 91.049C227.554 91.049 228.512 89.9157 228.512 87.3622V80.525H229.836V87.2589C229.836 90.808 228.195 92.2655 225.996 92.2655C223.918 92.2655 222.352 90.9113 222.352 87.3277V80.525H223.676Z" fill="white"/>
<path d="M233.231 88.4438L232.177 92.0761H230.82L234.267 80.525H235.848L239.31 92.0761H237.911L236.827 88.4438H233.231ZM236.559 87.279L235.566 83.9536C235.339 83.199 235.19 82.5191 235.039 81.8448H235.008C234.857 82.5305 234.691 83.2335 234.504 83.9364L233.51 87.279H236.559Z" fill="white"/>
<path d="M240.806 92.0761V80.525H242.238L245.491 86.3608C246.171 87.5648 246.78 88.8185 247.314 90.1137L247.344 90.0964C247.223 88.5528 247.193 87.1498 247.193 85.3509V80.525H248.429V92.0761H247.102L243.88 86.2145C243.179 84.9739 242.545 83.6862 241.981 82.3584L241.935 82.3756C242.011 83.8331 242.041 85.2218 242.041 87.1412V92.0761H240.806Z" fill="white"/>
<path d="M252.36 88.4438L251.306 92.0761H249.949L253.399 80.525H254.98L258.445 92.0761H257.043L255.959 88.4438H252.36ZM255.689 87.279L254.68 83.9536C254.456 83.199 254.304 82.5191 254.153 81.8448H254.125C253.974 82.5305 253.808 83.2335 253.621 83.9364L252.628 87.279H255.689Z" fill="white"/>
<path d="M264.439 80.525V87.3622C264.439 89.9444 265.448 91.049 266.805 91.049C268.318 91.049 269.273 89.9157 269.273 87.3622V80.525H270.6V87.2589C270.6 90.808 268.958 92.2655 266.759 92.2655C264.679 92.2655 263.113 90.9113 263.113 87.3277V80.525H264.439Z" fill="white"/>
<path d="M272.874 92.0761V80.525H274.304L277.557 86.3694C278.237 87.5734 278.846 88.8271 279.38 90.1223L279.411 90.105C279.29 88.5615 279.259 87.1585 279.259 85.3595V80.525H280.495V92.0761H279.168L275.946 86.2145C275.247 84.9733 274.613 83.6856 274.049 82.3584L274.004 82.3756C274.08 83.8331 274.107 85.2218 274.107 87.1412V92.0761H272.874Z" fill="white"/>
<path d="M284.096 80.525V92.0761H282.785V80.525H284.096Z" fill="white"/>
<path d="M295.06 86.18C295.06 90.1566 292.937 92.2655 290.347 92.2655C287.664 92.2655 285.783 89.8984 285.783 86.4038C285.783 82.7371 287.785 80.3356 290.496 80.3356C293.275 80.3356 295.06 82.7543 295.06 86.18ZM287.182 86.3694C287.182 88.8368 288.358 91.0489 290.42 91.0489C292.483 91.0489 293.676 88.8713 293.676 86.2489C293.676 83.9536 292.619 81.5521 290.436 81.5521C288.252 81.5521 287.182 83.8331 287.182 86.3608V86.3694ZM292.619 77.8682L290.708 79.8565H289.624L291.023 77.8682H292.619Z" fill="white"/>
<path d="M296.762 92.0761V80.525H298.195L301.448 86.3694C302.126 87.5741 302.734 88.8277 303.268 90.1223L303.299 90.105C303.18 88.5615 303.15 87.1585 303.15 85.3595V80.525H304.383V92.0761H303.059L299.831 86.2145C299.131 84.9739 298.496 83.6862 297.933 82.3584L297.887 82.3756C297.963 83.8331 297.993 85.2218 297.993 87.1412V92.0761H296.762Z" fill="white"/>
<path d="M83.7863 92.2626H87.4075L87.4075 9.54269H83.7863L83.7863 92.2626Z" fill="#F8A900"/>
</svg>
